<?xml version="1.0" standalone="no"?>
<!DOCTYPE svg PUBLIC "-//W3C//DTD SVG 20010904//EN"
 "http://www.w3.org/TR/2001/REC-SVG-20010904/DTD/svg10.dtd">
<svg version="1.0" xmlns="http://www.w3.org/2000/svg"
 width="301.000000pt" height="167.000000pt" viewBox="0 0 301.000000 167.000000"
 preserveAspectRatio="xMidYMid meet">

<g transform="translate(0.000000,167.000000) scale(0.100000,-0.100000)"
fill="#000000" stroke="none">
<path d="M2456 1575 c-9 -9 -16 -22 -16 -28 0 -7 -41 -43 -92 -81 l-91 -68
-91 1 c-145 3 -300 -47 -451 -143 -54 -35 -64 -38 -144 -40 -86 -3 -210 -38
-218 -63 -2 -6 19 -37 47 -71 27 -33 50 -67 50 -75 0 -9 -13 -25 -30 -37 -16
-12 -30 -29 -30 -38 0 -10 -16 -26 -35 -36 -32 -18 -35 -23 -35 -65 0 -102 85
-217 187 -254 67 -24 86 -22 106 13 10 16 23 27 30 24 7 -2 26 9 42 26 16 16
36 30 44 30 9 0 41 -27 72 -61 36 -40 61 -60 70 -57 25 10 80 131 92 205 12
68 15 73 83 145 120 126 203 282 219 410 7 57 8 59 94 136 47 43 99 83 114 90
18 8 27 18 25 29 -4 23 -23 27 -42 8z m-286 -214 c-30 -10 -61 -15 -69 -13 -9
3 -12 1 -8 -5 4 -7 0 -10 -10 -8 -10 2 -22 4 -27 4 -39 3 103 39 154 39 8 0
-10 -8 -40 -17z m-156 -10 c4 -5 0 -11 -6 -14 -9 -3 -8 -10 6 -26 18 -19 18
-23 4 -37 -13 -14 -18 -13 -45 10 -28 24 -43 25 -43 4 0 -5 4 -7 9 -3 5 3 12
1 16 -5 11 -17 -14 -11 -50 13 -42 27 -45 42 -7 33 15 -4 34 -8 42 -10 8 -2
23 1 33 6 18 9 18 10 0 23 -17 13 -16 14 9 15 15 0 29 -4 32 -9z m33 -37 c-3
-4 -14 -3 -24 0 -15 6 -15 8 -3 16 16 10 39 -4 27 -16z m-115 -66 c105 -107
186 -226 171 -252 -18 -31 -136 -156 -147 -156 -15 0 -139 110 -132 118 10 9
-15 42 -32 43 -18 0 -91 96 -120 156 -16 34 -16 35 8 54 35 28 163 99 178 99
6 0 40 -28 74 -62z m172 39 c8 -12 7 -20 -2 -29 -10 -10 -17 -8 -35 10 -19 19
-20 24 -7 32 19 12 31 9 44 -13z m-79 -57 c17 -18 17 -22 4 -36 -13 -13 -18
-12 -38 10 -23 24 -21 46 3 46 7 0 21 -9 31 -20z m89 -47 c-17 -26 -30 -26
-48 2 -17 25 -17 27 1 40 16 12 21 11 38 -6 15 -15 17 -23 9 -36z m52 -19 c-6
-16 -8 -15 -22 5 -13 18 -13 25 -3 38 12 14 14 13 22 -5 5 -12 7 -29 3 -38z
m-512 -26 c-4 -6 0 -16 9 -23 17 -12 13 -21 -16 -45 -17 -12 -21 -12 -36 8
l-17 23 -21 -21 c-27 -25 -33 -25 -33 -2 0 10 11 29 24 41 21 19 24 20 30 6 5
-15 9 -15 34 4 31 24 36 25 26 9z m450 -12 c15 -24 13 -56 -4 -56 -4 0 -15 12
-25 26 -13 20 -14 28 -4 40 15 18 14 18 33 -10z m66 -20 c0 -13 -6 -29 -14
-35 -20 -17 -31 21 -14 48 15 24 28 18 28 -13z m-520 -113 c0 -9 -42 -53 -51
-53 -12 0 -27 53 -25 90 3 63 16 67 47 16 16 -25 29 -49 29 -53z m-96 31 c5
-17 2 -32 -9 -43 -19 -22 -19 -31 2 -60 15 -23 17 -23 29 -6 13 18 14 18 34 0
24 -22 25 -38 5 -55 -8 -7 -13 -16 -10 -20 3 -5 1 -11 -4 -15 -15 -8 -67 68
-91 131 -22 60 -28 101 -10 74 9 -13 12 -13 21 3 14 24 26 21 33 -9z m178 -21
c15 -27 15 -29 -7 -45 -30 -23 -29 -23 -50 9 -17 25 -17 27 6 44 31 24 32 24
51 -8z m-241 -81 c-16 -29 -24 12 -11 58 1 3 5 -6 11 -18 5 -15 5 -30 0 -40z
m301 16 c-8 -8 -9 -4 -5 13 4 13 8 18 11 10 2 -7 -1 -18 -6 -23z m-341 -21 c3
-21 9 -40 12 -44 8 -7 -21 -43 -35 -43 -13 0 -10 44 5 60 10 12 9 12 -6 0 -18
-13 -19 -12 -16 20 4 43 8 52 22 47 7 -2 15 -20 18 -40z m312 6 c-5 -12 -3
-14 8 -8 19 12 -12 -36 -64 -98 -36 -43 -90 -87 -73 -58 4 6 2 11 -3 11 -6 0
-11 10 -11 23 0 14 23 43 67 84 71 65 87 74 76 46z m-53 -1 c0 -13 -61 -55
-68 -47 -4 4 7 18 23 31 31 25 45 30 45 16z m145 -52 c17 -19 17 -22 2 -37
-13 -14 -21 -14 -42 -5 -29 14 -32 30 -7 48 23 18 26 17 47 -6z m-93 -32 c-7
-7 -12 -8 -12 -2 0 14 12 26 19 19 2 -3 -1 -11 -7 -17z m-267 -24 c10 -19 36
-51 58 -71 39 -35 39 -35 20 -55 -19 -19 -20 -19 -44 1 l-24 19 20 24 20 23
-22 -19 c-27 -23 -44 -12 -73 44 -18 34 -18 38 -2 53 22 23 25 22 47 -19z
m383 -32 c10 -7 6 -14 -19 -30 -26 -16 -37 -18 -56 -9 -30 13 -29 21 4 45 27
20 33 19 71 -6z m-132 -3 c18 -20 18 -21 1 -34 -18 -13 -18 -14 3 -25 12 -6
19 -14 16 -17 -3 -3 -25 6 -50 21 l-45 27 21 24 c26 30 30 31 54 4z m-122 -92
c16 -12 16 -14 -2 -30 -16 -15 -21 -15 -37 -3 -16 12 -17 16 -6 30 16 19 22
20 45 3z m56 -27 c0 -15 -30 -32 -46 -26 -15 6 -15 8 1 26 16 17 45 18 45 0z"/>
<path d="M1905 1100 c-29 -19 -65 -72 -65 -96 0 -6 9 -23 21 -38 39 -49 132
-26 164 40 21 44 19 61 -10 89 -29 30 -69 32 -110 5z m76 -20 c45 -25 -2 -115
-58 -108 -14 2 -31 10 -36 19 -14 22 7 73 36 87 29 14 35 14 58 2z"/>
<path d="M2085 1010 c3 -5 8 -10 11 -10 2 0 4 5 4 10 0 6 -5 10 -11 10 -5 0
-7 -4 -4 -10z"/>
<path d="M2027 977 c-4 -12 0 -15 15 -12 27 6 44 22 23 22 -8 0 -15 -5 -15
-11 0 -6 -4 -5 -9 2 -7 11 -9 11 -14 -1z"/>
<path d="M2010 938 c0 -5 -4 -6 -10 -3 -6 3 -10 -4 -10 -17 1 -20 2 -21 13 -8
7 8 18 20 25 26 10 8 9 11 -3 11 -8 0 -15 -4 -15 -9z"/>
<path d="M1585 1030 c-3 -5 -2 -10 4 -10 5 0 13 5 16 10 3 6 2 10 -4 10 -5 0
-13 -4 -16 -10z"/>
<path d="M1735 884 c-10 -15 -36 -47 -58 -71 -22 -23 -36 -43 -31 -43 17 1
121 126 112 135 -3 3 -13 -7 -23 -21z"/>
<path d="M1474 785 c-10 -8 -14 -15 -8 -15 6 0 17 7 24 15 16 19 9 19 -16 0z"/>
<path d="M1360 646 c0 -2 8 -10 18 -17 15 -13 16 -12 3 4 -13 16 -21 21 -21
13z"/>
</g>
</svg>
