<?xml version="1.0" standalone="no"?>
<!DOCTYPE svg PUBLIC "-//W3C//DTD SVG 20010904//EN"
 "http://www.w3.org/TR/2001/REC-SVG-20010904/DTD/svg10.dtd">
<svg version="1.0" xmlns="http://www.w3.org/2000/svg"
 width="626.000000pt" height="626.000000pt" viewBox="0 0 626.000000 626.000000"
 preserveAspectRatio="xMidYMid meet">

<g transform="translate(0.000000,626.000000) scale(0.100000,-0.100000)"
fill="#000000" stroke="none">
<path d="M0 3130 l0 -3130 3130 0 3130 0 0 3130 0 3130 -3130 0 -3130 0 0
-3130z m5108 2269 c3 -28 -16 -43 -43 -33 -15 6 -21 45 -8 58 16 16 48 1 51
-25z m-3284 -11 c8 -14 7 -21 -6 -34 -30 -30 -75 9 -48 42 16 18 39 15 54 -8z
m1766 -118 c104 -27 270 -104 356 -165 34 -25 91 -73 126 -108 189 -186 295
-412 319 -681 8 -92 17 -132 34 -166 34 -66 65 -186 65 -253 0 -156 -82 -316
-196 -383 -46 -27 -164 -64 -203 -64 -14 0 -45 -17 -70 -38 -25 -21 -65 -51
-89 -67 l-42 -28 58 -53 c67 -60 89 -104 127 -246 41 -159 58 -297 57 -493 0
-221 -20 -372 -62 -462 -72 -155 -246 -250 -410 -224 -46 8 -66 5 -121 -12
l-67 -22 41 -95 c37 -85 41 -103 41 -175 0 -147 -76 -316 -194 -436 -110 -111
-254 -162 -386 -138 -143 26 -231 113 -257 252 l-12 65 -65 -40 c-90 -54 -156
-71 -250 -66 -118 7 -204 56 -258 147 -23 39 -27 57 -27 118 1 63 6 81 43 157
l43 86 -17 87 c-19 97 -25 384 -11 511 l8 73 -28 -14 c-80 -41 -197 -43 -255
-3 -45 30 -95 99 -109 149 -15 56 -6 169 20 238 86 228 400 560 678 716 32 18
62 34 68 36 5 2 -11 27 -37 55 -125 140 -217 337 -248 534 -20 125 -8 343 24
452 119 396 420 680 816 767 120 26 368 21 490 -11z m1050 -299 c14 -28 -13
-55 -41 -41 -19 10 -26 40 -12 53 13 14 43 7 53 -12z m-3449 -63 c10 -18 8
-24 -7 -35 -10 -7 -23 -12 -28 -10 -17 6 -29 34 -23 51 9 23 44 20 58 -6z
m4353 -673 c9 -25 -5 -45 -30 -45 -26 0 -40 20 -30 45 3 8 16 15 30 15 13 0
26 -7 30 -15z m-4106 -47 c27 -27 -5 -73 -38 -53 -14 9 -12 52 3 58 19 8 22 8
35 -5z m3535 -450 c7 -21 -12 -48 -34 -48 -22 0 -34 22 -25 45 7 18 53 20 59
3z m-4199 -594 c20 -19 20 -28 1 -44 -33 -27 -74 17 -43 48 16 16 23 15 42 -4z
m293 -580 c8 -20 -8 -48 -30 -52 -22 -5 -42 35 -26 54 16 19 48 18 56 -2z
m3757 -326 c8 -14 7 -21 -6 -34 -30 -30 -75 9 -48 42 16 18 39 15 54 -8z m670
-383 c9 -24 -4 -45 -29 -45 -13 0 -25 7 -29 15 -9 24 4 45 29 45 13 0 25 -7
29 -15z m-4130 -251 c21 -21 20 -40 -4 -64 -24 -24 -43 -25 -64 -4 -19 18 -21
55 -4 72 17 17 54 15 72 -4z m-330 -456 c8 -14 7 -21 -6 -34 -30 -30 -75 9
-48 42 16 18 39 15 54 -8z m4034 -5 c4 -30 -31 -49 -52 -27 -19 19 -20 26 -4
42 19 19 53 10 56 -15z m-809 -107 c15 -18 -2 -56 -23 -56 -21 0 -38 27 -31
50 7 23 37 27 54 6z m-2509 -121 c6 -8 10 -22 8 -32 -4 -24 -47 -24 -62 0 -9
15 -7 21 8 33 25 18 31 18 46 -1z"/>
<path d="M3112 5240 c-256 -56 -462 -189 -621 -400 -144 -193 -210 -410 -198
-658 12 -252 92 -448 266 -649 l62 -72 -35 -15 c-162 -68 -398 -255 -555 -440
-148 -174 -214 -308 -215 -436 -1 -84 18 -132 73 -184 57 -54 188 -47 287 16
26 16 48 27 50 26 2 -2 -3 -42 -11 -89 -31 -196 -28 -437 9 -613 12 -60 12
-67 -6 -93 -112 -166 -91 -315 55 -390 183 -92 446 31 528 247 22 58 25 94 16
165 -6 45 -4 42 23 -36 l31 -87 -41 -63 c-74 -114 -90 -230 -46 -325 46 -100
141 -149 275 -143 157 8 296 110 381 282 39 80 80 215 80 265 0 14 -25 87 -55
163 -30 75 -55 139 -55 142 0 2 24 4 53 4 32 0 67 8 92 20 32 16 47 18 75 10
19 -5 69 -7 110 -5 124 7 234 79 291 190 31 61 51 201 56 401 7 256 -15 423
-83 629 -20 62 -34 84 -72 120 -26 24 -64 54 -84 67 -21 12 -38 24 -38 26 0 2
20 15 45 29 24 15 79 54 122 88 64 51 85 63 119 65 23 1 72 12 110 24 54 18
79 33 119 73 76 77 125 197 125 304 0 60 -38 192 -69 241 -26 42 -29 56 -34
161 -21 438 -334 814 -775 932 -116 30 -337 34 -460 8z m448 -60 c104 -25 263
-101 350 -168 200 -152 333 -368 375 -611 8 -46 15 -105 15 -132 l0 -48 -35
15 c-19 7 -54 14 -79 14 l-45 0 -6 48 c-32 226 -132 427 -299 600 -124 128
-269 218 -426 265 -167 50 -164 47 -45 42 61 -2 148 -13 195 -25z m-215 -50
c171 -46 322 -135 450 -264 156 -157 254 -352 284 -561 9 -61 8 -72 -6 -82
-30 -23 -39 -14 -42 34 -13 256 -180 536 -414 695 -236 160 -567 203 -794 103
-31 -14 -58 -25 -62 -25 -14 1 100 66 169 97 l75 34 130 -4 c90 -4 154 -12
210 -27z m-35 -171 c38 -7 67 -15 65 -19 -2 -4 -30 -10 -62 -14 -132 -15 -306
-74 -438 -146 -147 -81 -327 -238 -401 -350 -15 -22 -29 -39 -31 -37 -13 13
83 209 144 294 89 125 238 229 383 267 67 18 246 20 340 5z m395 -611 c123
-96 13 -323 -133 -275 -79 26 -108 136 -57 222 42 72 134 98 190 53z m550
-167 c22 -10 46 -25 53 -34 12 -13 8 -15 -28 -10 -49 7 -119 -18 -165 -59
-117 -102 -170 -317 -111 -444 13 -28 29 -55 35 -58 18 -11 13 -26 -6 -19
-122 43 -176 239 -113 406 28 74 78 144 128 180 81 59 138 70 207 38z m66
-114 c65 -44 89 -135 65 -241 -27 -114 -83 -199 -157 -237 -52 -26 -86 -24
-127 7 -48 37 -65 84 -65 174 1 131 71 257 168 301 53 24 75 24 116 -4z m-737
-129 c30 -42 -2 -97 -56 -98 -47 0 -62 50 -27 94 25 32 62 34 83 4z m285 -306
c1 -7 -24 -38 -55 -69 -234 -230 -599 -302 -943 -187 -78 26 -138 65 -226 148
l-50 47 74 -47 c80 -51 200 -103 296 -129 79 -22 280 -30 372 -16 167 26 330
110 453 233 65 65 77 68 79 20z m112 -112 c19 0 -2 -21 -75 -74 -175 -130
-383 -197 -609 -196 -99 1 -84 15 23 23 181 13 447 143 557 270 l28 34 33 -29
c18 -15 37 -28 43 -28z m-1251 -138 c177 -134 460 -208 696 -181 113 12 103
18 159 -91 33 -66 85 -188 85 -200 0 -4 -49 -10 -109 -14 -96 -5 -215 -31
-282 -60 -14 -6 -18 1 -23 46 -31 253 -48 272 -40 47 3 -102 3 -207 -1 -233
l-7 -47 -42 6 c-78 12 -76 10 -70 74 8 68 -10 112 -58 141 -16 10 -143 46
-282 81 -138 34 -252 63 -254 65 -5 3 80 153 130 232 23 34 38 65 36 68 -8 8
-84 -83 -136 -162 l-47 -72 -58 43 c-32 23 -71 48 -88 55 -16 7 -28 18 -26 24
11 32 310 216 352 216 8 0 37 -17 65 -38z m1053 -123 c74 -38 136 -91 157
-136 84 -178 121 -556 84 -845 -19 -146 -41 -204 -99 -257 -69 -63 -119 -84
-202 -85 -79 -1 -94 5 -70 32 43 47 95 211 118 370 17 123 7 396 -19 492 -16
61 -59 181 -99 276 -7 17 54 34 136 38 106 5 103 13 -9 31 -19 3 -63 2 -96 -3
-61 -8 -62 -8 -79 20 -9 16 -15 31 -13 33 4 5 129 52 141 54 4 0 27 -9 50 -20z
m-1412 -160 c25 -16 54 -38 63 -48 16 -18 15 -19 -23 -25 -46 -7 -94 -44 -109
-83 -25 -61 -82 -301 -82 -341 0 -24 5 -53 11 -64 9 -17 7 -24 -17 -44 -50
-40 -140 -84 -188 -90 -60 -9 -98 8 -132 58 -23 33 -28 50 -27 101 1 143 91
297 295 504 l91 92 36 -15 c20 -8 57 -28 82 -45z m83 -127 c3 -5 -6 -55 -19
-113 -14 -57 -25 -113 -25 -124 0 -10 15 -35 34 -55 l33 -35 -17 -70 c-16 -67
-18 -70 -46 -69 -16 1 -48 7 -72 13 -33 9 -46 19 -59 45 -15 32 -14 40 16 169
49 206 49 206 84 227 34 21 62 26 71 12z m236 -57 c202 -50 220 -59 220 -122
0 -40 -67 -308 -83 -334 -6 -10 -25 -24 -41 -30 -25 -11 -48 -8 -165 21 -75
18 -137 34 -139 35 -2 2 4 42 14 90 l17 86 -37 38 -37 38 28 111 c15 62 30
112 33 112 3 0 88 -20 190 -45z m346 -117 c10 -20 13 -42 9 -67 -5 -31 -12
-39 -41 -50 -64 -23 -82 -103 -34 -151 22 -22 20 -50 -6 -102 -15 -28 -70 -53
-97 -42 -18 6 -23 24 -9 24 17 0 42 76 77 227 21 94 32 164 29 183 -6 30 -6
30 25 19 18 -6 38 -24 47 -41z m663 5 c36 -134 36 -365 0 -546 -57 -286 -176
-403 -329 -324 -62 31 -90 87 -90 179 0 37 -3 68 -7 69 -5 0 -28 1 -52 3 -89
5 -95 82 -15 199 l49 71 3 159 3 159 37 15 c82 34 178 52 284 52 l107 1 10
-37z m-559 -197 c65 -13 65 -13 65 -47 l0 -34 -47 3 c-26 2 -71 11 -100 21
-41 14 -54 23 -56 41 -5 32 22 52 51 39 12 -5 51 -15 87 -23z m-2 -133 c28 -3
52 -7 52 -9 0 -2 -18 -31 -40 -65 -68 -106 -75 -177 -23 -231 15 -15 41 -30
58 -34 30 -5 31 -8 42 -76 8 -51 19 -82 42 -114 l32 -44 -33 -20 c-70 -43
-156 -63 -299 -68 l-135 -4 -17 43 c-8 24 -33 93 -54 153 l-38 109 -70 17
c-74 17 -163 58 -184 84 -16 19 -31 21 -31 3 0 -35 108 -111 198 -138 29 -8
44 -19 47 -33 35 -153 38 -141 -50 -156 -79 -14 -293 -9 -350 8 l-30 9 0 179
c0 131 5 205 19 276 10 54 21 100 25 102 4 3 130 -26 281 -64 151 -38 290 -70
308 -70 58 0 98 27 127 83 14 28 25 57 25 65 0 10 7 12 23 8 12 -4 46 -9 75
-13z m265 -755 c62 -154 66 -180 42 -273 -67 -261 -277 -432 -472 -386 -95 23
-163 107 -163 201 0 49 33 138 69 189 l23 32 22 -20 c51 -48 159 -69 255 -50
34 6 64 16 67 20 3 5 -33 9 -80 9 -99 0 -178 24 -218 68 -15 16 -39 68 -58
127 -18 55 -35 105 -37 110 -2 6 39 11 109 12 130 2 241 26 321 72 29 16 55
29 58 30 3 0 31 -63 62 -141z m-908 117 c83 0 168 2 189 5 l40 5 23 -120 c26
-135 24 -174 -13 -250 -68 -138 -241 -233 -374 -204 -135 29 -194 139 -139
258 32 71 37 75 70 46 53 -44 119 -54 208 -31 75 21 74 26 -6 19 -138 -11
-191 31 -217 173 -22 121 -23 116 27 107 23 -5 110 -8 192 -8z"/>
<path d="M2033 2870 c-49 -36 -107 -119 -124 -178 -11 -38 -10 -45 8 -70 40
-54 124 -29 169 51 13 24 37 46 63 59 43 21 81 61 81 84 0 20 -5 18 -38 -15
-21 -22 -43 -32 -78 -37 -45 -6 -51 -10 -69 -47 -24 -50 -70 -86 -86 -70 -17
17 12 93 64 166 71 101 71 102 10 57z"/>
<path d="M2605 2758 c-45 -39 -50 -124 -10 -168 22 -25 107 -43 140 -30 55 21
81 110 50 170 -26 51 -134 67 -180 28z m89 -24 c19 -18 21 -65 4 -82 -16 -16
-66 -15 -84 2 -18 19 -18 25 6 64 22 35 49 41 74 16z"/>
</g>
</svg>
